<svg width="54" height="31" viewBox="0 0 54 31" fill="none" xmlns="http://www.w3.org/2000/svg">
<path d="M49.2075 24.832H4.22656V30.3283H49.2075V24.832Z" fill="#020202"/>
<path d="M49.158 0.691406H4.16406V6.1876H49.158V0.691406Z" fill="#020202"/>
<path d="M3.89512 6.46484C2.7015 7.63874 1.76172 9.04514 1.13402 10.5971C0.506327 12.149 0.204097 13.8134 0.246077 15.4869C0.203577 17.1723 0.509797 18.8483 1.14554 20.4098C1.78128 21.9713 2.73283 23.3845 3.94048 24.5609" fill="#020202"/>
<path d="M49.4985 24.5531C50.6906 23.3785 51.629 21.9717 52.2556 20.4198C52.8821 18.868 53.1835 17.204 53.141 15.531C53.1852 13.846 52.8803 12.17 52.2457 10.6085C51.611 9.04693 50.6602 7.63353 49.4531 6.45703" fill="#020202"/>
</svg>
