<svg width="133" height="38" viewBox="0 0 133 38" fill="none" xmlns="http://www.w3.org/2000/svg">
<mask id="mask0_1_831" style="mask-type:luminance" maskUnits="userSpaceOnUse" x="0" y="0" width="58" height="38">
<path d="M57.4776 0.707031H0.15625V37.2951H57.4776V0.707031Z" fill="white"/>
</mask>
<g mask="url(#mask0_1_831)">
<path d="M57.4776 0.707031H0.15625V37.2951H57.4776V0.707031Z" fill="white"/>
<mask id="mask1_1_831" style="mask-type:luminance" maskUnits="userSpaceOnUse" x="2" y="4" width="142" height="34">
<path d="M143.345 4.36719H2.25781V37.0261H143.345V4.36719Z" fill="white"/>
</mask>
<g mask="url(#mask1_1_831)">
<path d="M51.2075 28.832H6.22656V34.3283H51.2075V28.832Z" fill="#020202"/>
<path d="M51.158 4.69141H6.16406V10.1876H51.158V4.69141Z" fill="#020202"/>
<path d="M5.89512 10.4648C4.7015 11.6387 3.76172 13.0451 3.13402 14.5971C2.50633 16.149 2.2041 17.8134 2.24608 19.4869C2.20358 21.1723 2.5098 22.8483 3.14554 24.4098C3.78128 25.9713 4.73283 27.3845 5.94048 28.5609" fill="#020202"/>
<path d="M51.4985 28.5531C52.6906 27.3785 53.629 25.9717 54.2556 24.4198C54.8821 22.868 55.1835 21.204 55.141 19.531C55.1852 17.846 54.8803 16.17 54.2457 14.6085C53.611 13.0469 52.6602 11.6335 51.4531 10.457" fill="#020202"/>
</g>
</g>
<path d="M73.7164 21.0881C73.0924 23.9681 71.2924 25.4081 68.3164 25.4081C66.4924 25.4081 65.0524 24.8561 64.0204 23.7041C62.9884 22.5761 62.4844 20.9921 62.4844 18.9761C62.4844 16.9841 63.0124 15.3761 64.0684 14.1281C65.1244 12.8801 66.5164 12.2561 68.2444 12.2561C70.1404 12.2561 71.5564 12.9041 72.4684 14.2001C73.3804 15.4961 73.8604 17.1041 73.8604 19.0721V19.3601H64.5484L64.5244 19.5041C64.5244 20.8241 64.8604 21.8561 65.5564 22.6001C66.2284 23.3681 67.1884 23.7281 68.3884 23.7281C69.2764 23.7281 69.9724 23.5361 70.5004 23.1041C71.0284 22.6961 71.4364 22.0241 71.7244 21.0881H73.7164ZM71.7484 17.7041C71.6524 16.5281 71.2924 15.6161 70.6684 14.9441C70.0444 14.2721 69.2044 13.9361 68.1964 13.9361C67.1884 13.9361 66.3724 14.2721 65.7244 14.9441C65.0524 15.6161 64.6684 16.5521 64.5484 17.7041H71.7484ZM87.183 12.6161V29.8001H85.143V23.2721C84.279 24.6401 82.911 25.3361 80.991 25.3361C79.215 25.3361 77.847 24.7121 76.887 23.4641C75.927 22.2161 75.471 20.7041 75.471 18.8801C75.471 16.8401 75.975 15.2321 77.007 14.0321C78.015 12.8321 79.407 12.2321 81.183 12.2321C83.055 12.2321 84.423 12.9521 85.287 14.3681V12.6161H87.183ZM81.351 13.9601C80.199 13.9601 79.287 14.3921 78.615 15.2801C77.919 16.1681 77.583 17.3441 77.583 18.8321C77.583 20.2961 77.919 21.4481 78.591 22.3121C79.263 23.1761 80.199 23.6081 81.375 23.6081C82.551 23.6081 83.487 23.1761 84.183 22.3121C84.855 21.4481 85.215 20.2481 85.215 18.7361C85.215 17.2481 84.855 16.0721 84.183 15.2321C83.487 14.3681 82.551 13.9601 81.351 13.9601ZM100.522 12.6161L100.498 25.0001H98.6016V23.0561C97.5456 24.5921 96.1296 25.3361 94.3296 25.3361C93.0336 25.3361 92.0016 24.9761 91.2816 24.2561C90.5616 23.5361 90.2016 22.5041 90.2016 21.1361V12.6161H92.2416V20.5841C92.2416 21.5681 92.4336 22.3121 92.8176 22.8161C93.2016 23.3201 93.8736 23.5601 94.8576 23.5601C97.2576 23.5601 98.4816 22.0721 98.4816 19.0961V12.6161H100.522ZM114.554 23.3681V24.9761C114.122 25.1201 113.666 25.2161 113.162 25.2161C111.986 25.2161 111.386 24.5921 111.362 23.3921C110.186 24.6881 108.698 25.3601 106.874 25.3601C105.65 25.3601 104.69 25.0481 103.97 24.4241C103.25 23.8001 102.914 22.9361 102.914 21.8561C102.914 19.6481 104.378 18.3521 107.306 17.9921C107.498 17.9441 107.762 17.9201 108.146 17.8961C109.538 17.7281 110.378 17.5361 110.714 17.3441C111.074 17.0801 111.266 16.6481 111.266 16.0241C111.266 14.6561 110.33 13.9841 108.458 13.9841C107.498 13.9841 106.754 14.1761 106.274 14.5601C105.77 14.9441 105.482 15.5921 105.386 16.5041H103.394C103.418 15.1601 103.898 14.1281 104.81 13.4081C105.722 12.6641 106.97 12.3041 108.578 12.3041C110.306 12.3041 111.602 12.6881 112.466 13.5041C112.73 13.7441 112.922 14.0801 113.066 14.5121C113.186 14.9201 113.258 15.2561 113.282 15.5201C113.282 15.7841 113.306 16.1921 113.306 16.7201C113.306 17.3201 113.282 18.2321 113.258 19.4561C113.21 20.7041 113.21 21.6161 113.21 22.2161C113.21 22.6721 113.258 22.9841 113.378 23.1761C113.498 23.3681 113.714 23.4401 114.05 23.4401C114.17 23.4401 114.338 23.4161 114.554 23.3681ZM111.266 18.5921C111.122 18.6881 110.954 18.7841 110.81 18.8801C110.642 18.9521 110.426 19.0241 110.186 19.0721C109.946 19.1201 109.778 19.1441 109.682 19.1681C109.586 19.1921 109.394 19.2161 109.058 19.2641C108.722 19.3121 108.53 19.3361 108.53 19.3361C108.026 19.3841 107.69 19.4321 107.546 19.4561C107.402 19.4801 107.114 19.5521 106.682 19.6721C106.25 19.7681 105.962 19.9121 105.794 20.0561C105.602 20.2001 105.434 20.3921 105.266 20.6801C105.098 20.9681 105.026 21.3041 105.026 21.6881C105.026 22.3121 105.242 22.8161 105.674 23.2001C106.106 23.5601 106.73 23.7521 107.498 23.7521C108.458 23.7521 109.346 23.4641 110.114 22.8881C110.882 22.3121 111.266 21.6161 111.266 20.8481V18.5921ZM118.637 7.91211V25.0001H116.573V7.91211H118.637ZM130.989 16.2161H128.949C128.805 14.7281 127.797 13.9601 125.925 13.9601C125.133 13.9601 124.509 14.1281 124.077 14.4161C123.621 14.7281 123.405 15.1361 123.405 15.6401C123.405 15.7841 123.405 15.9281 123.453 16.0721C123.477 16.2161 123.525 16.3361 123.621 16.4321C123.717 16.5281 123.789 16.6241 123.861 16.6961C123.933 16.7921 124.053 16.8641 124.221 16.9361C124.389 17.0081 124.509 17.0561 124.605 17.1041C124.701 17.1521 124.845 17.2241 125.085 17.2721C125.325 17.3201 125.493 17.3681 125.589 17.3921C125.685 17.4161 125.853 17.4641 126.141 17.5121C126.429 17.5841 126.597 17.6321 126.693 17.6321C127.269 17.7761 127.725 17.8721 128.013 17.9441C128.301 18.0401 128.709 18.1841 129.237 18.4001C129.765 18.6161 130.149 18.8321 130.437 19.0721C130.701 19.3121 130.941 19.6241 131.157 20.0321C131.373 20.4401 131.493 20.8961 131.493 21.4001C131.493 22.6001 131.013 23.5841 130.077 24.3041C129.141 25.0241 127.893 25.3841 126.357 25.3841C124.677 25.3841 123.381 25.0241 122.469 24.2801C121.557 23.5601 121.077 22.4801 121.029 21.0881H123.045C123.141 22.8401 124.269 23.7041 126.405 23.7041C127.317 23.7041 128.037 23.5361 128.589 23.1521C129.141 22.7681 129.429 22.2641 129.429 21.6401C129.429 21.2321 129.285 20.8961 128.997 20.6081C128.709 20.3441 128.373 20.1521 128.037 20.0321C127.677 19.9121 127.173 19.7681 126.525 19.6001C126.429 19.6001 126.357 19.5761 126.309 19.5521C126.165 19.5281 125.853 19.4561 125.373 19.3601C124.893 19.2641 124.557 19.1681 124.365 19.0961C124.149 19.0481 123.837 18.9521 123.453 18.8081C123.069 18.6641 122.781 18.5201 122.589 18.3761C122.397 18.2321 122.181 18.0401 121.941 17.8001C121.701 17.5601 121.557 17.2961 121.461 16.9841C121.365 16.6721 121.317 16.3121 121.317 15.9041C121.317 14.8001 121.725 13.9121 122.589 13.2401C123.453 12.5921 124.605 12.2561 126.045 12.2561C127.485 12.2561 128.685 12.6161 129.597 13.2881C130.509 13.9841 130.989 14.9681 130.989 16.2161Z" fill="#020202"/>
</svg>
